# ProBuilder 5.0.7
# https://unity3d.com/unity/features/worldbuilding/probuilder
# 26/5/2025 3:05:55 p. m.

mtllib ./Rock.mtl
o Rock

g Rock
v -0.0846138 0 0.8853891
v -0.25 0 0.893146
v -0.25 0.25 1.057156
v 0 0.25 1
v -0.5 0 0.893146
v -0.5 0.25 1.057156
v -0.5 0.5 1.057156
v -0.25 0.5 1.057156
v 0 0.5 1
v -0.75 0 0.893146
v -0.75 0.25 1
v -0.967824 0.07936704 0.8398049
v -1 0.25 1
v -1 0.5 1
v -0.75 0.5 1
v -0.7835703 0.8230369 1
v -0.6007099 0.8230369 1
v -0.9664297 0.8230369 0.9294443
v -0.9210024 0.8881444 0.9409834
v -0.7835703 0.9269631 1
v -0.6007099 0.9269631 1
v -0.4178505 0.8230369 1
v -0.2349901 0.8230369 1
v -0.4178505 0.9269631 1
v -0.2349901 0.9067405 0.9355791
v -1 0 0.75
v -1.112339 0.25 0.75
v -1 0 0.5
v -1.112339 0.25 0.5
v -1.112339 0.5 0.5
v -1.112339 0.5 0.75
v -1 0 0.25
v -1.112339 0.25 0.25
v -1 0 0
v -1 0.25 0
v -1 0.5 0
v -1.112339 0.5 0.25
v -0.9664297 0.8230369 0.25
v -0.9664297 0.8230369 0.5
v -0.9664297 0.8230369 0.04495728
v -0.8476906 0.9269631 0.1051017
v -0.8433399 0.9269631 0.25
v -0.8822365 0.9269631 0.5
v -0.9664297 0.8230369 0.75
v -0.8454399 0.9269631 0.75
v -0.5 0 0
v -0.5 0.25 -0.09593773
v -0.75 0.25 -0.09593773
v -0.75 0 0
v -0.5 0.5 -0.09593773
v -0.75 0.5 -0.09593773
v -0.1331387 0 0.07532465
v 0 0.25 0
v -0.25 0.25 -0.09593773
v -0.25 0 0
v 0 0.5 0
v -0.25 0.5 -0.09593773
v -0.2349901 0.8230369 0.04495728
v -0.4178505 0.8230369 0.04495728
v -0.2349901 0.9269631 0.1388848
v -0.4178505 0.9269631 0.08905792
v -0.6007099 0.9269631 0.06753254
v -0.6007099 0.8230369 0.04495728
v -0.7835703 0.8230369 0.04495728
v -0.7835703 0.9269631 0.04495728
v 0 0 0.5
v 0 0.25 0.5
v 0 0.25 0.25
v 0 0 0.25
v 0 0.5 0.5
v 0 0.5 0.25
v 0 0.25 0.75
v 0 0 0.75
v 0 0.5 0.75
v -0.2349901 0.8230369 0.75
v -0.2349901 0.9269631 0.75
v -0.2349901 0.9269631 0.5
v -0.2349901 0.8230369 0.5
v -0.2349901 0.8230369 0.25
v -0.2349901 0.9269631 0.25
v -0.5 1.136969 0.5
v -0.25 1 0.5
v -0.25 1 0.75
v -0.5 1 0.75
v -0.75 1.136969 0.5
v -0.75 1 0.75
v -0.75 1.136969 0.25
v -0.5 1.136969 0.25
v -0.25 1 0.25
v -0.5 -0.1312501 0.25
v -0.25 0 0.25
v -0.5 -0.1312501 0.5
v -0.25 -0.1312501 0.5
v -0.75 -0.1312501 0.25
v -0.75 -0.1312501 0.5
v -0.75 0 0.75
v -0.5 -0.1312501 0.75
v -0.25 -0.1312501 0.75

vt -0.04166747 0.08433615
vt -0.2064845 0.08583136
vt -0.1985475 0.3502529
vt 0.04839363 0.3436853
vt -0.4561916 0.08697981
vt -0.4482546 0.3514014
vt -0.4482546 0.6002725
vt -0.1985475 0.599124
vt 0.04839363 0.5925564
vt -0.7058987 0.08812825
vt -0.7007276 0.3471306
vt -0.9260488 0.16308
vt -0.9504347 0.3482791
vt -0.9504347 0.5971501
vt -0.7007276 0.5960017
vt -0.7342586 0.9177341
vt -0.5516124 0.9168941
vt -0.9203182 0.9118845
vt -0.8743857 0.9775833
vt -0.7342586 1.021191
vt -0.5516124 1.020351
vt -0.3689673 0.9160541
vt -0.1863212 0.9152141
vt -0.3689673 1.019511
vt -0.1894387 0.9924318
vt 0.800952 -0.1432862
vt 0.7099472 -0.2270091
vt 0.7055133 -0.007939088
vt 0.9597524 0.01465198
vt 0.460142 -0.224832
vt 0.4557081 -0.005761916
vt 0.4557081 0.2380764
vt 0.7055133 0.2358992
vt 0.9597524 0.2584903
vt 0.2103368 -0.2226548
vt 0.2059029 -0.003584743
vt -0.03946843 -0.2204776
vt -0.03946843 0.02336067
vt -0.03946843 0.267199
vt 0.2059029 0.2402536
vt 0.2116617 0.5874984
vt 0.4614669 0.5853212
vt 0.006778789 0.589284
vt 0.0715628 0.7163043
vt 0.2165199 0.7160016
vt 0.4647899 0.7052487
vt 0.7112721 0.583144
vt 0.8905766 0.5815813
vt 0.7160474 0.7111843
vt 0.9038996 0.6549993
vt 0.4999127 -0.000712935
vt 0.4981197 0.2412399
vt 0.7480761 0.2408835
vt 0.749869 -0.001069403
vt 0.4981197 0.4905112
vt 0.7480761 0.4901548
vt 0.9998254 0.4971167
vt 0.9998254 0.2478454
vt 0.9998254 -0.00142587
vt 0.1345231 0.005556168
vt 0 0.2492713
vt 0.2481634 0.2415964
vt 0.2499563 -0.0003564675
vt 0 0.4985426
vt 0.2481634 0.4908677
vt 0.2357893 0.8237324
vt 0.4186177 0.8234716
vt 0.2375446 0.9345207
vt 0.4194419 0.930459
vt 0.6018671 0.9285563
vt 0.6014452 0.8232109
vt 0.7842736 0.8229501
vt 0.7842736 0.9265734
vt 0.8495067 0.93107
vt 0.9671011 0.8226894
vt -0.5 0
vt -0.5 0.2477894
vt -0.25 0.2477894
vt -0.25 0
vt -0.5 0.4955788
vt -0.25 0.4955788
vt 0 0.4955788
vt 0 0.2477894
vt -0.07532465 0.0176661
vt -0.8853891 0.01122736
vt -1 0.2477894
vt -0.75 0.2477894
vt -0.75 0
vt -1 0.4955788
vt -0.75 0.4955788
vt -1 0.84694
vt -0.75 0.84694
vt -0.9355791 0.9299036
vt -0.75 0.9499473
vt -0.5 0.9499473
vt -0.5 0.84694
vt -0.25 0.84694
vt -0.25 0.9499473
vt -0.1388848 0.9499473
vt -0.04495728 0.84694
vt 0.619629 0.5293415
vt 0.3563229 0.5263452
vt 0.3563229 0.7762511
vt 0.6048667 0.7755119
vt 0.3335286 0.5243977
vt 0.3335286 0.7743036
vt 0.3313491 0.9592613
vt 0.5153238 1.023669
vt 0.6971181 1.023128
vt 0.9770047 0.522484
vt 0.8681728 0.5286024
vt 0.8534104 0.7747728
vt 0.9404225 0.7724987
vt 0.8789133 1.022588
vt 1.011361 0.9621281
vt 0.94266 0.1278365
vt 0.8789133 0.06790423
vt 0.8681728 0.2786964
vt 0.9383348 0.2726931
vt 0.6971181 0.09101165
vt 0.619629 0.2794356
vt 0.5153238 0.1130696
vt 0.3563229 0.2764392
vt 0.3335286 0.1634183
vt 0.3335286 0.2744917
vt -0.4997938 -0.001170796
vt -0.4960246 0.2372992
vt -0.2498969 0.2485821
vt -0.2498969 -0.0005853979
vt -0.4960246 0.4864667
vt -0.2461277 0.4870521
vt 0 0.4983351
vt -0.1330837 0.07476208
vt -0.9995876 -0.002341592
vt -0.9995876 0.2468259
vt -0.7459215 0.2367138
vt -0.7496907 -0.001756194
vt -0.9995876 0.4959935
vt -0.7459215 0.4858813
vt -0.9995876 0.745161
vt -0.7496907 0.7457464
vt -0.9697041 0.841211
vt -0.7496907 0.8884158
vt -0.4997938 0.8890012
vt -0.4960246 0.7356343
vt -0.2461277 0.7362196
vt -0.2498969 0.8895866
vt -0.0845789 0.8822428
vt 0 0.7475026

vn 0.5024424 -0.5842368 0.6373531
vn 0.01785672 -0.6476827 0.7617009
vn 0.08921866 -0.2755957 0.9571244
vn 0.764099 -0.2528816 0.5934675
vn -0.07308957 -0.6914589 0.7187089
vn -0.1076738 -0.2851095 0.9524279
vn -0.08438746 0.06305154 0.9944361
vn 0.1107351 0.1143354 0.9872513
vn 0.7177588 0.2439147 0.6521717
vn -0.1150503 -0.7962748 0.5938938
vn -0.08175341 -0.2216869 0.9716848
vn -0.5370168 -0.582027 0.6106206
vn -0.5716004 -0.3045327 0.761927
vn -0.5734081 0.1426459 0.806756
vn -0.1581906 0.01639822 0.9872724
vn -0.2157388 0.02058882 0.976234
vn 0 0.08744822 0.9961691
vn -0.7439886 0.313125 0.5902828
vn -0.6373894 0.6862963 0.3503316
vn -0.2757735 0.5963439 0.753872
vn 0 0.5998227 0.8001329
vn 0.02699258 0.07883567 0.9965221
vn 0.6899874 0.3065773 0.6556887
vn 0.1214555 0.6313837 0.7659003
vn 0.7955994 0.456994 0.3977161
vn -0.5654044 -0.7770564 0.2765888
vn -0.9487391 -0.216697 0.2300794
vn -0.6910021 -0.7205013 0.05825718
vn -0.9777886 -0.2095935 0
vn -0.9775857 0.2105378 0
vn -0.9565113 0.2067444 0.2057737
vn -0.75805 -0.6501194 -0.05201055
vn -0.9567053 -0.2058093 -0.2058093
vn -0.6304247 -0.4529121 -0.6304247
vn -0.6868482 -0.1042229 -0.7192894
vn -0.6847371 0.08539965 -0.7237693
vn -0.9706306 0.1802044 -0.1593815
vn -0.7992778 0.6009566 0.00248095
vn -0.8386849 0.5444045 -0.0152145
vn -0.5432314 0.5665302 -0.6196314
vn -0.6782165 0.6047043 -0.4175585
vn -0.8029763 0.5956737 -0.02004997
vn -0.7719457 0.6356717 -0.004622047
vn -0.8334754 0.5490798 0.06188792
vn -0.617058 0.7852773 0.05078385
vn 0.0589614 -0.7003398 -0.7113703
vn 0 -0.1821871 -0.9832639
vn -0.1795853 -0.1795853 -0.9672116
vn -0.04648166 -0.6333063 -0.7725041
vn 0 0.2041953 -0.9789302
vn -0.1383277 0.1763781 -0.9745544
vn 0.4294046 -0.7360318 -0.5233248
vn 0.7611136 -0.2070342 -0.6146892
vn 0.202645 -0.1888797 -0.9608639
vn 0.1600802 -0.827469 -0.5382095
vn 0.7502981 0.2949231 -0.5916697
vn 0.1742974 0.2380343 -0.9554895
vn 0.6545892 0.4289124 -0.6225329
vn 0.05266436 0.3583486 -0.9321012
vn 0.5520339 0.7635478 -0.3350424
vn 0.1660247 0.6680039 -0.7254009
vn 0.1163164 0.4845708 -0.8669842
vn 0.01513455 0.282341 -0.9591947
vn -0.09013873 0.2766925 -0.9567216
vn -0.3147903 0.3995345 -0.8609757
vn 0.8298246 -0.5541827 -0.06536642
vn 1 0 0
vn 0.6290306 -0.7723143 -0.08860614
vn 0.9509657 0.3092963 0
vn 0.9968581 -0.04099732 0.06777401
vn 0.8215405 -0.5167763 0.24086
vn 0.9948546 0.1011634 0.005511222
vn 0.9948691 0.101171 0
vn 0.9682456 0.2250377 -0.1088972
vn 0.1911066 0.9627858 0.1911066
vn 0.8043963 0.594093 0
vn 0.5641898 0.7934343 0.2283679
vn 0 0.9238701 0.382706
vn -0.4981759 0.842454 0.2051637
vn -0.3547948 0.8867087 0.296426
vn -0.5037704 0.8089215 -0.3030865
vn 0.2331405 0.8708059 -0.4328309
vn 0.6960203 0.585683 -0.4153688
vn 0.1661042 -0.9430478 -0.2882191
vn 0.2219824 -0.949446 -0.2219824
vn 0 -1 0
vn 0.2882191 -0.9430478 -0.1661042
vn -0.1841255 -0.9655028 -0.1841255
vn -0.2882191 -0.9430478 0.1661042
vn -0.2160801 -0.9433239 0.2518915
vn -0.1545024 -0.8989182 0.4099697
vn 0.1916133 -0.9299223 0.3138929

usemtl Rock
f 4/4/4 3/3/3 2/2/2 1/1/1
f 3/3/3 6/6/6 5/5/5 2/2/2
f 8/8/8 7/7/7 6/6/6 3/3/3
f 9/9/9 8/8/8 3/3/3 4/4/4
f 6/6/6 11/11/11 10/10/10 5/5/5
f 11/11/11 13/13/13 12/12/12 10/10/10
f 15/15/15 14/14/14 13/13/13 11/11/11
f 7/7/7 15/15/15 11/11/11 6/6/6
f 17/17/17 16/16/16 15/15/15 7/7/7
f 16/16/16 18/18/18 14/14/14 15/15/15
f 20/20/20 19/19/19 18/18/18 16/16/16
f 21/21/21 20/20/20 16/16/16 17/17/17
f 23/23/23 22/22/22 8/8/8 9/9/9
f 22/22/22 17/17/17 7/7/7 8/8/8
f 24/24/24 21/21/21 17/17/17 22/22/22
f 25/25/25 24/24/24 22/22/22 23/23/23
f 13/29/13 27/28/27 26/27/26 12/26/12
f 27/28/27 29/31/29 28/30/28 26/27/26
f 31/33/31 30/32/30 29/31/29 27/28/27
f 14/34/14 31/33/31 27/28/27 13/29/13
f 29/31/29 33/36/33 32/35/32 28/30/28
f 33/36/33 35/38/35 34/37/34 32/35/32
f 37/40/37 36/39/36 35/38/35 33/36/33
f 30/32/30 37/40/37 33/36/33 29/31/29
f 39/42/39 38/41/38 37/40/37 30/32/30
f 38/41/38 40/43/40 36/39/36 37/40/37
f 42/45/42 41/44/41 40/43/40 38/41/38
f 43/46/43 42/45/42 38/41/38 39/42/39
f 18/48/18 44/47/44 31/33/31 14/34/14
f 44/47/44 39/42/39 30/32/30 31/33/31
f 45/49/45 43/46/43 39/42/39 44/47/44
f 19/50/19 45/49/45 44/47/44 18/48/18
f 49/54/49 48/53/48 47/52/47 46/51/46
f 48/53/48 51/56/51 50/55/50 47/52/47
f 35/58/35 36/57/36 51/56/51 48/53/48
f 34/59/34 35/58/35 48/53/48 49/54/49
f 55/63/55 54/62/54 53/61/53 52/60/52
f 54/62/54 57/65/57 56/64/56 53/61/53
f 47/52/47 50/55/50 57/65/57 54/62/54
f 46/51/46 47/52/47 54/62/54 55/63/55
f 57/65/57 59/67/59 58/66/58 56/64/56
f 59/67/59 61/69/61 60/68/60 58/66/58
f 63/71/63 62/70/62 61/69/61 59/67/59
f 50/55/50 63/71/63 59/67/59 57/65/57
f 51/56/51 64/72/64 63/71/63 50/55/50
f 64/72/64 65/73/65 62/70/62 63/71/63
f 40/75/40 41/74/41 65/73/65 64/72/64
f 36/57/36 40/75/40 64/72/64 51/56/51
f 69/79/68 68/78/67 67/77/67 66/76/66
f 68/78/67 71/81/69 70/80/69 67/77/67
f 53/83/53 56/82/56 71/81/69 68/78/67
f 52/84/52 53/83/53 68/78/67 69/79/68
f 73/88/71 72/87/70 4/86/4 1/85/1
f 72/87/70 74/90/69 9/89/9 4/86/4
f 67/77/67 70/80/69 74/90/69 72/87/70
f 66/76/66 67/77/67 72/87/70 73/88/71
f 74/90/69 75/92/69 23/91/23 9/89/9
f 75/92/69 76/94/72 25/93/25 23/91/23
f 78/96/69 77/95/73 76/94/72 75/92/69
f 70/80/69 78/96/69 75/92/69 74/90/69
f 71/81/69 79/97/69 78/96/69 70/80/69
f 79/97/69 80/98/74 77/95/73 78/96/69
f 58/100/58 60/99/60 80/98/74 79/97/69
f 56/82/56 58/100/58 79/97/69 71/81/69
f 84/104/78 83/103/77 82/102/76 81/101/75
f 83/103/77 76/106/72 77/105/73 82/102/76
f 24/108/24 25/107/25 76/106/72 83/103/77
f 21/109/21 24/108/24 83/103/77 84/104/78
f 45/113/45 86/112/80 85/111/79 43/110/43
f 86/112/80 84/104/78 81/101/75 85/111/79
f 20/114/20 21/109/21 84/104/78 86/112/80
f 19/115/19 20/114/20 86/112/80 45/113/45
f 42/119/42 87/118/81 65/117/65 41/116/41
f 87/118/81 88/121/82 62/120/62 65/117/65
f 85/111/79 81/101/75 88/121/82 87/118/81
f 43/110/43 85/111/79 87/118/81 42/119/42
f 88/121/82 89/123/83 61/122/61 62/120/62
f 89/123/83 80/125/74 60/124/60 61/122/61
f 82/102/76 77/105/73 80/125/74 89/123/83
f 81/101/75 82/102/76 89/123/83 88/121/82
f 55/129/55 91/128/85 90/127/84 46/126/46
f 91/128/85 93/131/87 92/130/86 90/127/84
f 69/61/68 66/132/66 93/131/87 91/128/85
f 52/133/52 69/61/68 91/128/85 55/129/55
f 49/137/49 94/136/88 32/135/32 34/134/34
f 94/136/88 95/139/89 28/138/28 32/135/32
f 90/127/84 92/130/86 95/139/89 94/136/88
f 46/126/46 90/127/84 94/136/88 49/137/49
f 95/139/89 96/141/90 26/140/26 28/138/28
f 96/141/90 10/143/10 12/142/12 26/140/26
f 97/145/91 5/144/5 10/143/10 96/141/90
f 92/130/86 97/145/91 96/141/90 95/139/89
f 93/131/87 98/146/92 97/145/91 92/130/86
f 98/146/92 2/147/2 5/144/5 97/145/91
f 73/149/71 1/148/1 2/147/2 98/146/92
f 66/132/66 73/149/71 98/146/92 93/131/87

